<svg xmlns="http://www.w3.org/2000/svg" width="199" height="69" viewBox="0 0 199 69" fill="none">
  <g clip-path="url(#clip0_38_1070)">
    <path d="M30.396 27.2319C30.556 26.9439 30.7853 26.7999 31.084 26.7999H34.012C34.1293 26.7999 34.2307 26.8426 34.316 26.9279C34.4013 27.0132 34.444 27.1146 34.444 27.2319V37.5679C34.444 37.6852 34.4013 37.7866 34.316 37.8719C34.2307 37.9572 34.1293 37.9999 34.012 37.9999H31.116C30.9987 37.9999 30.8973 37.9572 30.812 37.8719C30.7267 37.7866 30.684 37.6852 30.684 37.5679V32.6079L29.516 34.9119C29.484 34.9866 29.4093 35.0719 29.292 35.1679C29.1747 35.2639 29.0253 35.3119 28.844 35.3119H27.756C27.5747 35.3119 27.4253 35.2639 27.308 35.1679C27.1907 35.0719 27.116 34.9866 27.084 34.9119L25.916 32.6079V37.5679C25.916 37.6852 25.8733 37.7866 25.788 37.8719C25.7027 37.9572 25.6013 37.9999 25.484 37.9999H22.588C22.4707 37.9999 22.3693 37.9572 22.284 37.8719C22.1987 37.7866 22.156 37.6852 22.156 37.5679V27.2319C22.156 27.1146 22.1987 27.0132 22.284 26.9279C22.3693 26.8426 22.4707 26.7999 22.588 26.7999H25.516C25.8147 26.7999 26.044 26.9439 26.204 27.2319L28.3 31.0719L30.396 27.2319ZM47.0778 34.8799C47.1951 34.8799 47.2964 34.9226 47.3818 35.0079C47.4671 35.0932 47.5098 35.1946 47.5098 35.3119V37.5679C47.5098 37.6852 47.4671 37.7866 47.3818 37.8719C47.2964 37.9572 47.1951 37.9999 47.0778 37.9999H36.9658C36.8484 37.9999 36.7471 37.9572 36.6618 37.8719C36.5764 37.7866 36.5338 37.6852 36.5338 37.5679V27.2319C36.5338 27.1146 36.5764 27.0132 36.6618 26.9279C36.7471 26.8426 36.8484 26.7999 36.9658 26.7999H46.9178C47.0351 26.7999 47.1364 26.8426 47.2218 26.9279C47.3071 27.0132 47.3498 27.1146 47.3498 27.2319V29.4879C47.3498 29.6052 47.3071 29.7066 47.2218 29.7919C47.1364 29.8772 47.0351 29.9199 46.9178 29.9199H40.6938V30.9279H46.0378C46.1551 30.9279 46.2564 30.9706 46.3418 31.0559C46.4271 31.1412 46.4698 31.2426 46.4698 31.3599V33.4399C46.4698 33.5572 46.4271 33.6586 46.3418 33.7439C46.2564 33.8292 46.1551 33.8719 46.0378 33.8719H40.6938V34.8799H47.0778ZM55.4395 26.7999C57.2422 26.7999 58.6822 27.1892 59.7595 27.9679C60.8475 28.7466 61.3915 29.9519 61.3915 31.5839V33.2159C61.3915 34.8799 60.8528 36.0959 59.7755 36.8639C58.7088 37.6212 57.2635 37.9999 55.4395 37.9999H50.3355C50.2182 37.9999 50.1168 37.9572 50.0315 37.8719C49.9462 37.7866 49.9035 37.6852 49.9035 37.5679V27.2319C49.9035 27.1146 49.9462 27.0132 50.0315 26.9279C50.1168 26.8426 50.2182 26.7999 50.3355 26.7999H55.4395ZM55.5195 34.8799C56.0208 34.8799 56.4155 34.7626 56.7035 34.5279C57.0022 34.2826 57.1515 33.9412 57.1515 33.5039V31.2959C57.1515 30.8586 57.0022 30.5226 56.7035 30.2879C56.4155 30.0426 56.0208 29.9199 55.5195 29.9199H54.0635V34.8799H55.5195ZM75.0173 26.7999C75.1133 26.7999 75.1933 26.8372 75.2573 26.9119C75.3319 26.9759 75.3693 27.0559 75.3693 27.1519L75.3533 27.2639L71.6733 37.4719C71.6199 37.6212 71.5346 37.7492 71.4173 37.8559C71.2999 37.9519 71.1453 37.9999 70.9533 37.9999H67.2253C67.0333 37.9999 66.8786 37.9519 66.7613 37.8559C66.6439 37.7492 66.5639 37.6372 66.5213 37.5199L62.8092 27.2639L62.7933 27.1519C62.7933 27.0559 62.8253 26.9759 62.8893 26.9119C62.9639 26.8372 63.0493 26.7999 63.1453 26.7999H66.5213C66.7133 26.7999 66.8679 26.8586 66.9852 26.9759C67.1133 27.0826 67.1986 27.1999 67.2413 27.3279L69.0813 33.4559L70.9213 27.3279C70.9639 27.1892 71.0439 27.0666 71.1613 26.9599C71.2786 26.8532 71.4386 26.7999 71.6413 26.7999H75.0173ZM84.851 34.7199H87.747C87.8643 34.7199 87.9657 34.7626 88.051 34.8479C88.1363 34.9332 88.179 35.0346 88.179 35.1519V37.5679C88.179 37.6852 88.1363 37.7866 88.051 37.8719C87.9657 37.9572 87.8643 37.9999 87.747 37.9999H77.603C77.4857 37.9999 77.3843 37.9572 77.299 37.8719C77.2137 37.7866 77.171 37.6852 77.171 37.5679V35.1519C77.171 35.0346 77.2137 34.9332 77.299 34.8479C77.3843 34.7626 77.4857 34.7199 77.603 34.7199H80.531V30.0799H77.603C77.4857 30.0799 77.3843 30.0372 77.299 29.9519C77.2137 29.8666 77.171 29.7652 77.171 29.6479V27.2319C77.171 27.1146 77.2137 27.0132 77.299 26.9279C77.3843 26.8426 77.4857 26.7999 77.603 26.7999H87.747C87.8643 26.7999 87.9657 26.8426 88.051 26.9279C88.1363 27.0132 88.179 27.1146 88.179 27.2319V29.6479C88.179 29.7652 88.1363 29.8666 88.051 29.9519C87.9657 30.0372 87.8643 30.0799 87.747 30.0799H84.851V34.7199ZM97.149 30.8639C98.322 30.9919 99.261 31.1999 99.965 31.4879C100.679 31.7759 101.197 32.1546 101.517 32.6239C101.837 33.0932 101.997 33.6799 101.997 34.3839C101.997 35.1519 101.746 35.8239 101.245 36.3999C100.754 36.9652 100.071 37.4026 99.197 37.7119C98.322 38.0106 97.325 38.1599 96.205 38.1599C94.957 38.1599 93.901 38.0052 93.037 37.6959C92.1728 37.3866 91.5274 36.9759 91.1008 36.4639C90.6741 35.9412 90.4608 35.3706 90.4608 34.7519C90.4608 34.6452 90.4928 34.5599 90.5568 34.4959C90.6314 34.4319 90.7221 34.3999 90.8288 34.3999H94.109C94.333 34.3999 94.514 34.4692 94.653 34.6079C94.834 34.7786 95.037 34.8959 95.261 34.9599C95.485 35.0132 95.799 35.0399 96.205 35.0399C97.218 35.0399 97.725 34.8852 97.725 34.5759C97.725 34.4479 97.655 34.3412 97.517 34.2559C97.389 34.1599 97.154 34.0799 96.813 34.0159C96.482 33.9412 95.991 33.8666 95.341 33.7919C93.879 33.6212 92.759 33.2586 91.9808 32.7039C91.2021 32.1386 90.8128 31.3439 90.8128 30.3199C90.8128 29.5946 91.0314 28.9546 91.4688 28.3999C91.9061 27.8452 92.525 27.4132 93.325 27.1039C94.135 26.7946 95.074 26.6399 96.141 26.6399C97.25 26.6399 98.221 26.8159 99.053 27.1679C99.885 27.5092 100.519 27.9359 100.957 28.4479C101.394 28.9599 101.613 29.4612 101.613 29.9519C101.613 30.0586 101.575 30.1439 101.501 30.2079C101.437 30.2719 101.346 30.3039 101.229 30.3039H97.789C97.607 30.3039 97.442 30.2399 97.293 30.1119C97.175 30.0052 97.037 29.9199 96.877 29.8559C96.717 29.7919 96.471 29.7599 96.141 29.7599C95.426 29.7599 95.069 29.9092 95.069 30.2079C95.069 30.3679 95.207 30.4959 95.485 30.5919C95.762 30.6772 96.317 30.7679 97.149 30.8639ZM112.039 34.7199H114.935C115.052 34.7199 115.153 34.7626 115.239 34.8479C115.324 34.9332 115.367 35.0346 115.367 35.1519V37.5679C115.367 37.6852 115.324 37.7866 115.239 37.8719C115.153 37.9572 115.052 37.9999 114.935 37.9999H104.791C104.673 37.9999 104.572 37.9572 104.487 37.8719C104.401 37.7866 104.359 37.6852 104.359 37.5679V35.1519C104.359 35.0346 104.401 34.9332 104.487 34.8479C104.572 34.7626 104.673 34.7199 104.791 34.7199H107.719V30.0799H104.791C104.673 30.0799 104.572 30.0372 104.487 29.9519C104.401 29.8666 104.359 29.7652 104.359 29.6479V27.2319C104.359 27.1146 104.401 27.0132 104.487 26.9279C104.572 26.8426 104.673 26.7999 104.791 26.7999H114.935C115.052 26.7999 115.153 26.8426 115.239 26.9279C115.324 27.0132 115.367 27.1146 115.367 27.2319V29.6479C115.367 29.7652 115.324 29.8666 115.239 29.9519C115.153 30.0372 115.052 30.0799 114.935 30.0799H112.039V34.7199ZM129.408 33.3759C129.408 35.0079 128.864 36.2132 127.776 36.9919C126.699 37.7706 125.259 38.1599 123.456 38.1599C121.654 38.1599 120.208 37.7706 119.12 36.9919C118.043 36.2132 117.504 34.9972 117.504 33.3439V31.4559C117.504 30.3679 117.76 29.4666 118.272 28.7519C118.795 28.0266 119.504 27.4932 120.4 27.1519C121.296 26.8106 122.315 26.6399 123.456 26.6399C124.598 26.6399 125.611 26.8106 126.496 27.1519C127.392 27.4932 128.102 28.0212 128.624 28.7359C129.147 29.4506 129.408 30.3466 129.408 31.4239V33.3759ZM121.824 33.6799C121.824 34.1172 121.968 34.4532 122.256 34.6879C122.555 34.9226 122.955 35.0399 123.456 35.0399C123.958 35.0399 124.352 34.9226 124.64 34.6879C124.939 34.4426 125.088 34.1012 125.088 33.6639V31.1359C125.088 30.6986 124.939 30.3626 124.64 30.1279C124.352 29.8826 123.958 29.7599 123.456 29.7599C122.955 29.7599 122.555 29.8772 122.256 30.1119C121.968 30.3466 121.824 30.6826 121.824 31.1199V33.6799ZM142.058 26.7999C142.175 26.7999 142.277 26.8426 142.362 26.9279C142.447 27.0132 142.49 27.1146 142.49 27.2319V37.5679C142.49 37.6852 142.447 37.7866 142.362 37.8719C142.277 37.9572 142.175 37.9999 142.058 37.9999H139.482C139.226 37.9999 139.013 37.8879 138.842 37.6639L135.354 33.2159V37.5679C135.354 37.6852 135.311 37.7866 135.226 37.8719C135.141 37.9572 135.039 37.9999 134.922 37.9999H131.946C131.829 37.9999 131.727 37.9572 131.642 37.8719C131.557 37.7866 131.514 37.6852 131.514 37.5679V27.2319C131.514 27.1146 131.557 27.0132 131.642 26.9279C131.727 26.8426 131.829 26.7999 131.946 26.7999H134.538C134.794 26.7999 135.002 26.9066 135.162 27.1199L138.65 31.9359V27.2319C138.65 27.1146 138.693 27.0132 138.778 26.9279C138.863 26.8426 138.965 26.7999 139.082 26.7999H142.058ZM166.782 31.1839C168.819 31.6639 169.838 32.7679 169.838 34.4959C169.838 35.2212 169.598 35.8612 169.118 36.4159C168.648 36.9706 167.992 37.4026 167.15 37.7119C166.307 38.0106 165.352 38.1599 164.286 38.1599C163.016 38.1599 161.966 37.9839 161.134 37.6319C160.312 37.2692 159.71 36.8319 159.326 36.3199C158.952 35.8079 158.766 35.3119 158.766 34.8319C158.766 34.7252 158.798 34.6399 158.862 34.5759C158.936 34.5119 159.022 34.4799 159.118 34.4799H162.622C162.739 34.4799 162.862 34.5439 162.99 34.6719C163.139 34.8106 163.288 34.9119 163.438 34.9759C163.587 35.0292 163.875 35.0559 164.302 35.0559C164.707 35.0559 165.011 34.9759 165.214 34.8159C165.416 34.6559 165.517 34.4532 165.517 34.2079C165.517 33.7386 165.107 33.5039 164.286 33.5039H162.158C162.04 33.5039 161.939 33.4612 161.854 33.3759C161.768 33.2906 161.726 33.1892 161.726 33.0719V31.7759C161.726 31.6266 161.758 31.4986 161.822 31.3919C161.886 31.2746 161.966 31.1892 162.062 31.1359L164.414 29.9199H159.934C159.816 29.9199 159.715 29.8772 159.63 29.7919C159.544 29.7066 159.502 29.6052 159.502 29.4879V27.2319C159.502 27.1146 159.544 27.0132 159.63 26.9279C159.715 26.8426 159.816 26.7999 159.934 26.7999H168.67C168.787 26.7999 168.888 26.8426 168.974 26.9279C169.059 27.0132 169.102 27.1146 169.102 27.2319V29.2639C169.102 29.5092 168.99 29.7226 168.766 29.9039L166.782 31.1839ZM178.999 30.0799C179.629 30.0479 180.274 30.1546 180.935 30.3999C181.607 30.6346 182.173 31.0506 182.631 31.6479C183.09 32.2346 183.319 32.9972 183.319 33.9359C183.319 34.7572 183.085 35.4879 182.615 36.1279C182.157 36.7679 181.522 37.2692 180.711 37.6319C179.911 37.9839 179.015 38.1599 178.023 38.1599C177.01 38.1599 176.087 37.9999 175.255 37.6799C174.434 37.3492 173.783 36.8799 173.303 36.2719C172.823 35.6532 172.583 34.9279 172.583 34.0959C172.583 33.0186 173.111 31.8186 174.167 30.4959L176.839 27.1199C176.989 26.9066 177.197 26.7999 177.463 26.7999H180.679C180.775 26.7999 180.855 26.8372 180.919 26.9119C180.994 26.9759 181.031 27.0559 181.031 27.1519C181.031 27.2266 181.01 27.2959 180.967 27.3599L178.999 30.0799ZM179.319 33.9999C179.319 33.6692 179.186 33.4132 178.919 33.2319C178.663 33.0506 178.349 32.9599 177.975 32.9599C177.602 32.9599 177.282 33.0506 177.015 33.2319C176.759 33.4132 176.631 33.6692 176.631 33.9999C176.631 34.3306 176.759 34.5866 177.015 34.7679C177.282 34.9492 177.602 35.0399 177.975 35.0399C178.349 35.0399 178.663 34.9492 178.919 34.7679C179.186 34.5866 179.319 34.3306 179.319 33.9999ZM196.785 33.8559C196.785 35.2746 196.289 36.3466 195.297 37.0719C194.316 37.7972 193.025 38.1599 191.425 38.1599C189.814 38.1599 188.518 37.7972 187.537 37.0719C186.556 36.3466 186.065 35.2639 186.065 33.8239V30.9759C186.065 30.0159 186.305 29.2106 186.785 28.5599C187.265 27.9092 187.905 27.4292 188.705 27.1199C189.516 26.7999 190.422 26.6399 191.425 26.6399C192.428 26.6399 193.329 26.7999 194.129 27.1199C194.94 27.4292 195.585 27.9092 196.065 28.5599C196.545 29.1999 196.785 29.9946 196.785 30.9439V33.8559ZM190.385 33.9839C190.385 34.2826 190.486 34.5332 190.689 34.7359C190.892 34.9279 191.137 35.0239 191.425 35.0239C191.713 35.0239 191.958 34.9226 192.161 34.7199C192.364 34.5172 192.465 34.2719 192.465 33.9839V30.7839C192.465 30.4852 192.364 30.2399 192.161 30.0479C191.969 29.8452 191.724 29.7439 191.425 29.7439C191.126 29.7439 190.876 29.8452 190.673 30.0479C190.481 30.2506 190.385 30.4959 190.385 30.7839V33.9839Z" fill="white"/>
    <path d="M50.603 45.2762C48.296 50.3189 44.4373 54.4918 39.5903 57.1857C34.7434 59.8795 29.1621 60.9531 23.6616 60.2497C18.1611 59.5463 13.0296 57.1027 9.01663 53.2758C5.00353 49.4489 2.31911 44.4392 1.3554 38.9783C0.391676 33.5174 1.19917 27.8914 3.65993 22.9221C6.12063 17.9527 10.1057 13.9002 15.0332 11.3566C19.9606 8.81287 25.5722 7.91121 31.0485 8.78326C36.5248 9.65532 41.5788 12.2554 45.4724 16.2038L43.5071 18.1419C40.0268 14.6126 35.5093 12.2886 30.6144 11.5091C25.7195 10.7296 20.7036 11.5356 16.2993 13.8092C11.895 16.0829 8.33293 19.7051 6.13343 24.1469C3.93393 28.5887 3.21223 33.6174 4.07363 38.4986C4.93503 43.3797 7.33443 47.8576 10.9214 51.2783C14.5085 54.6989 19.0952 56.8831 24.0117 57.5118C28.9283 58.1406 33.917 57.1809 38.2494 54.7731C42.5819 52.3652 46.0309 48.6352 48.093 44.1279L50.603 45.2762Z" fill="#286DA2"/>
    <path d="M46.469 43.3951C44.5629 47.5615 41.39 51.0173 37.4105 53.2613C33.431 55.5052 28.8519 56.4206 24.3374 55.8747C19.8229 55.3287 15.6078 53.3498 12.3036 50.2249C8.99944 47.1001 6.77784 42.9918 5.96114 38.4961C5.14454 34.0004 5.77534 29.3511 7.76204 25.2225C9.74864 21.0939 12.9879 17.7009 17.0099 15.5354C21.0319 13.37 25.6274 12.5449 30.1298 13.1798C34.6322 13.8147 38.8074 15.8765 42.0497 19.0662L40.4384 20.7215C37.5438 17.8739 33.8164 16.0332 29.7969 15.4664C25.7774 14.8997 21.6747 15.6363 18.0841 17.5695C14.4935 19.5026 11.6017 22.5318 9.82814 26.2176C8.05454 29.9033 7.49144 34.054 8.22044 38.0675C8.94944 42.0811 10.9327 45.7487 13.8826 48.5384C16.8325 51.3281 20.5955 53.0947 24.6258 53.5822C28.6561 54.0696 32.744 53.2524 36.2967 51.2491C39.8494 49.2458 42.682 46.1606 44.3837 42.441L46.469 43.3951Z" fill="#C2E1FF"/>
    <path d="M42.8278 41.6459C41.2663 45.059 38.6545 47.8835 35.3738 49.7069C32.093 51.5303 28.3152 52.257 24.5922 51.7809C20.8691 51.3047 17.3958 49.6508 14.6795 47.0605C11.9632 44.4702 10.1462 41.0793 9.4939 37.383C8.8416 33.6867 9.3881 29.8787 11.0537 26.5151C12.7193 23.1515 15.4167 20.4086 18.7519 18.6868C22.0871 16.9651 25.8854 16.3548 29.5921 16.9451C33.2988 17.5353 36.7197 19.2952 39.3551 21.9677L37.3645 23.9308C35.1477 21.6828 32.2703 20.2025 29.1524 19.706C26.0346 19.2095 22.8397 19.7228 20.0343 21.1711C17.229 22.6193 14.9601 24.9265 13.5591 27.7557C12.1581 30.585 11.6984 33.788 12.247 36.8971C12.7957 40.0062 14.3241 42.8584 16.6089 45.0372C18.8936 47.216 21.8152 48.6073 24.9468 49.0077C28.0784 49.4082 31.2561 48.797 34.0156 47.2633C36.7752 45.7296 38.9721 43.3537 40.2855 40.4828L42.8278 41.6459Z" fill="#AFD4FF"/>
    <g filter="url(#filter0_d_38_1070)">
      <path d="M11.0706 47.3171C13.3837 49.9902 16.4332 52.1312 20.0891 53.4296C23.7459 54.7298 27.5695 55.0358 31.2396 54.4887" stroke="#36C9C6" stroke-width="4" stroke-miterlimit="10"/>
      <path d="M41.5 20C39.4057 17.6637 36.6671 15.8108 33.4043 14.715C30.1407 13.6176 26.7453 13.405 23.4998 13.9472" stroke="#36C9C6" stroke-width="4" stroke-miterlimit="10"/>
    </g>
  </g>
  <defs>
    <filter id="filter0_d_38_1070" x="3.55823" y="5.66089" width="45.4309" height="57.0865" filterUnits="userSpaceOnUse" color-interpolation-filters="sRGB">
      <feFlood flood-opacity="0" result="BackgroundImageFix"/>
      <feColorMatrix in="SourceAlpha" type="matrix" values="0 0 0 0 0 0 0 0 0 0 0 0 0 0 0 0 0 0 127 0" result="hardAlpha"/>
      <feOffset/>
      <feGaussianBlur stdDeviation="3"/>
      <feColorMatrix type="matrix" values="0 0 0 0 0.572549 0 0 0 0 0.768627 0 0 0 0 1 0 0 0 1 0"/>
      <feBlend mode="normal" in2="BackgroundImageFix" result="effect1_dropShadow_38_1070"/>
      <feBlend mode="normal" in="SourceGraphic" in2="effect1_dropShadow_38_1070" result="shape"/>
    </filter>
    <clipPath id="clip0_38_1070">
      <rect width="198" height="69" fill="white" transform="translate(0.5)"/>
    </clipPath>
  </defs>
</svg>